<?xml version="1.0" encoding="UTF-8" standalone="no"?>
<svg
   xmlns:dc="http://purl.org/dc/elements/1.1/"
   xmlns:cc="http://creativecommons.org/ns#"
   xmlns:rdf="http://www.w3.org/1999/02/22-rdf-syntax-ns#"
   xmlns:svg="http://www.w3.org/2000/svg"
   xmlns="http://www.w3.org/2000/svg"
   id="svg3773"
   version="1.1"
   viewBox="0 0 48 48"
   height="48"
   width="48">
  <metadata
     id="metadata3779">
    <rdf:RDF>
      <cc:Work
         rdf:about="">
        <dc:format>image/svg+xml</dc:format>
        <dc:type
           rdf:resource="http://purl.org/dc/dcmitype/StillImage" />
        <dc:title></dc:title>
      </cc:Work>
    </rdf:RDF>
  </metadata>
  <defs
     id="defs3777">
    <linearGradient
       gradientTransform="matrix(2.75,0,0,2.75,1.9274815,2.423075)"
       y2="16"
       x2="8"
       y1="0"
       x1="8"
       gradientUnits="userSpaceOnUse"
       id="grad">
      <stop
         id="stop2"
         style="stop-color:#26B6DB"
         offset="0" />
      <stop
         id="stop4"
         style="stop-color:#0882C8"
         offset="1" />
    </linearGradient>
  </defs>
  <path
     id="path5018"
     d="M 24 2.1191406 A 21.880503 21.880505 0 0 0 2.1191406 24 A 21.880503 21.880505 0 0 0 24 45.880859 A 21.880503 21.880505 0 0 0 45.880859 24 A 21.880503 21.880505 0 0 0 24 2.1191406 z M 23.679688 4.8066406 A 1.7018169 1.7018169 0 0 1 25.380859 6.5078125 A 1.7018169 1.7018169 0 0 1 23.679688 8.2109375 A 1.7018169 1.7018169 0 0 1 21.978516 6.5078125 A 1.7018169 1.7018169 0 0 1 23.679688 4.8066406 z M 11.480469 9.8710938 A 1.7018169 1.7018169 0 0 1 12.658203 10.369141 A 1.7018169 1.7018169 0 0 1 12.658203 12.775391 A 1.7018169 1.7018169 0 0 1 10.251953 12.775391 A 1.7018169 1.7018169 0 0 1 10.251953 10.369141 A 1.7018169 1.7018169 0 0 1 11.480469 9.8710938 z M 35.929688 9.8710938 A 1.7018169 1.7018169 0 0 1 37.107422 10.369141 A 1.7018169 1.7018169 0 0 1 37.107422 12.775391 A 1.7018169 1.7018169 0 0 1 34.701172 12.775391 A 1.7018169 1.7018169 0 0 1 34.701172 10.369141 A 1.7018169 1.7018169 0 0 1 35.929688 9.8710938 z M 23.726562 10.972656 A 12.844419 12.844419 0 0 1 36.570312 23.818359 A 12.844419 12.844419 0 0 1 23.726562 36.662109 A 12.844419 12.844419 0 0 1 10.882812 23.818359 A 12.844419 12.844419 0 0 1 23.726562 10.972656 z M 6.3925781 22.09375 A 1.7018169 1.7018169 0 0 1 8.09375 23.796875 A 1.7018169 1.7018169 0 0 1 6.3925781 25.498047 A 1.7018169 1.7018169 0 0 1 4.6894531 23.796875 A 1.7018169 1.7018169 0 0 1 6.3925781 22.09375 z M 40.966797 22.09375 A 1.7018169 1.7018169 0 0 1 42.669922 23.796875 A 1.7018169 1.7018169 0 0 1 40.966797 25.498047 A 1.7018169 1.7018169 0 0 1 39.265625 23.796875 A 1.7018169 1.7018169 0 0 1 40.966797 22.09375 z M 11.480469 34.318359 A 1.7018169 1.7018169 0 0 1 12.658203 34.816406 A 1.7018169 1.7018169 0 0 1 12.658203 37.224609 A 1.7018169 1.7018169 0 0 1 10.251953 37.224609 A 1.7018169 1.7018169 0 0 1 10.251953 34.816406 A 1.7018169 1.7018169 0 0 1 11.480469 34.318359 z M 35.929688 34.318359 A 1.7018169 1.7018169 0 0 1 37.107422 34.816406 A 1.7018169 1.7018169 0 0 1 37.107422 37.224609 A 1.7018169 1.7018169 0 0 1 34.701172 37.224609 A 1.7018169 1.7018169 0 0 1 34.701172 34.816406 A 1.7018169 1.7018169 0 0 1 35.929688 34.318359 z M 23.679688 39.382812 A 1.7018169 1.7018169 0 0 1 25.380859 41.083984 A 1.7018169 1.7018169 0 0 1 23.679688 42.785156 A 1.7018169 1.7018169 0 0 1 21.978516 41.083984 A 1.7018169 1.7018169 0 0 1 23.679688 39.382812 z "
     style="opacity:0.98999999;fill:#ffffff;fill-opacity:1;stroke:none;stroke-width:1.239;stroke-miterlimit:4;stroke-dasharray:none;stroke-opacity:1" />
  <g
     id="g5059">
    <path
       style="fill:#ffffff;stroke:none;stroke-width:1px;stroke-linecap:butt;stroke-linejoin:miter;stroke-opacity:1;fill-opacity:1"
       d="m 16.929768,16.424963 4.446614,0.04079 2.610856,6.771907 3.100391,-6.771907 4.079463,-0.02039 -6.771908,16.99096 -4.426217,0.04079 1.97854,-4.691382 z"
       id="path5054" />
  </g>
</svg>
